<mxfile host="app.diagrams.net" modified="2023-12-04T16:06:37.907Z" agent="Mozilla/5.0 (Windows NT 10.0; Win64; x64) AppleWebKit/537.36 (KHTML, like Gecko) Chrome/119.0.0.0 Safari/537.36" version="22.1.5" etag="sC5WWbeiRZagKOEnPnB4" type="github">
  <diagram name="第 1 页" id="IT9x5pj-RK7VZ6SYPHBM">
    <mxGraphModel>
      <root>
        <mxCell id="0" />
        <mxCell id="1" parent="0" />
      </root>
    </mxGraphModel>
  </diagram>
</mxfile>
